# xmcd
#
# Track frame offsets:
#	150
#	19878
#	36477
#	45391
#	59641
#	74278
#	86846
#	100185
#	110271
#	135310
#	152336
#	171389
#	188297
#	206168
#	221720
#	235980
#	252141
#	271470
#	284128
#	300451
#
# Disc length: 4157 seconds
#
# Revision: 0
# Processed by: cddbd v1.5.2PL0 Copyright (c) Steve Scherf et al.
# Submitted via: audiograbber 1.83.01
#
DISCID=23103b14
DTITLE=Various Artist - Country Greats - The Ultimate Collection CD4
DYEAR=2017
DGENRE=Country
TTITLE0=John Stewart - Gold
TTITLE1=Tim McGraw - Still
TTITLE2=Emmylou Harris, Alison Krauss and Gillian Welch - Didn't Leave Nobody But
TTITLE2=The Baby
TTITLE3=Rita Remington - Angel Of The Morning
TTITLE4=Jeannie C. Riley - Harper Valley P.T.A.
TTITLE5=Randy Travis - Dreamin'
TTITLE6=Ray Stevens - Misty
TTITLE7=JJ Cale - Cajun Moon
TTITLE8=Rod Stewart - Mandolin Wind
TTITLE9=Kathy Mattea - Where've You Been
TTITLE10=Nancy Griffith - From A Distance
TTITLE11=Luke Winslow - Heartsick Blues
TTITLE12=Lydia Loveless - Longer
TTITLE13=The Bottle Rockets - The Long Way
TTITLE14=Devil In A Woodpile - A Long Way From Home
TTITLE15=Dollar Store - North Central Plain
TTITLE16=Scott H. Biram - Sinkin' Down
TTITLE17=George Jones - White Lightning
TTITLE18=Nitty Gritty Dirt Band - Mr Bojangles
TTITLE19=Ernest Tubb And His Texas Troubadours - Thanks A Lot
EXTD=
EXTT0=
EXTT1=
EXTT2=
EXTT3=
EXTT4=
EXTT5=
EXTT6=
EXTT7=
EXTT8=
EXTT9=
EXTT10=
EXTT11=
EXTT12=
EXTT13=
EXTT14=
EXTT15=
EXTT16=
EXTT17=
EXTT18=
EXTT19=
PLAYORDER=
